<?xml version="1.0" encoding="UTF-8"?>
<svg xmlns="http://www.w3.org/2000/svg"
     xmlns:xlink="http://www.w3.org/1999/xlink"
     version="1.2"
     width="320mm" height="320mm" viewBox="0 0 320 320"
     stroke="none"
     fill="#000000"
     stroke-width="0.3"
     font-size="3.88"
>
<defs>
  <marker id="arrow" markerWidth="15" markerHeight="7" refX="5" refY="3.5" orient="auto" markerUnits="strokeWidth">
    <path d="M0,0 L15,3.5 L0,7 z" stroke="context-stroke" fill="context-stroke"/>
  </marker>
</defs>
<g stroke-width="0.77" fill="#000000" fill-opacity="0.000" stroke="#D3D3D3" id="img-85b57263-1">
  <g transform="translate(160,146.06)">
    <path fill="none" d="M124.77,13.04 L -124.77 -13.04" class="primitive"/>
  </g>
  <g transform="translate(192.23,101.95)">
    <path fill="none" d="M93.64,53.77 L -93.64 -53.77" class="primitive"/>
  </g>
  <g transform="translate(165.57,147.86)">
    <path fill="none" d="M108.64,62.38 L -108.64 -62.38" class="primitive"/>
  </g>
  <g transform="translate(137.7,195.88)">
    <path fill="none" d="M103.57,59.47 L -103.57 -59.47" class="primitive"/>
  </g>
  <g transform="translate(169.93,151.76)">
    <path fill="none" d="M73.73,100.92 L -73.73 -100.92" class="primitive"/>
  </g>
  <g transform="translate(145.65,165.7)">
    <path fill="none" d="M51.01,113.95 L -51.01 -113.95" class="primitive"/>
  </g>
  <g transform="translate(96.95,187.27)">
    <path fill="none" d="M43.97,98.21 L -43.97 -98.21" class="primitive"/>
  </g>
  <g transform="translate(58.9,204.12)">
    <path fill="none" d="M28.71,64.13 L -28.71 -64.13" class="primitive"/>
  </g>
  <g transform="translate(70.3,178.65)">
    <path fill="none" d="M19.03,89.04 L -19.03 -89.04" class="primitive"/>
  </g>
  <g transform="translate(38.07,185.46)">
    <path fill="none" d="M9.6,44.92 L -9.6 -44.92" class="primitive"/>
  </g>
  <g transform="translate(26.67,160)">
    <path fill="none" d="M0,19.27 L 0 -19.27" class="primitive"/>
  </g>
  <g transform="translate(137.7,96.25)">
    <path fill="none" d="M-102.84,33.23 L 102.84 -33.23" class="primitive"/>
  </g>
  <g transform="translate(149.1,70.78)">
    <path fill="none" d="M-91.07,9.52 L 91.07 -9.52" class="primitive"/>
  </g>
  <g transform="translate(117.78,35.28)">
    <path fill="none" d="M-18.47,5.97 L 18.47 -5.97" class="primitive"/>
  </g>
  <g transform="translate(145.65,38.19)">
    <path fill="none" d="M-45.97,4.81 L 45.97 -4.81" class="primitive"/>
  </g>
  <g transform="translate(186.4,74.68)">
    <path fill="none" d="M-87.09,-28.14 L 87.09 28.14" class="primitive"/>
  </g>
</g>
<g stroke-width="0.77" stroke="#D3D3D3" id="img-85b57263-2">
</g>
<g font-size="4" stroke="#000000" stroke-opacity="0.000" fill="#000000" id="img-85b57263-3">
</g>
<g stroke-width="0" stroke="#000000" stroke-opacity="0.000" id="img-85b57263-4">
  <g transform="translate(293.33,160)" fill="#20B2AA">
    <circle cx="0" cy="0" r="8.26" class="primitive"/>
  </g>
  <g transform="translate(281.68,214.53)" fill="#20B2AA">
    <circle cx="0" cy="0" r="8.26" class="primitive"/>
  </g>
  <g transform="translate(248.73,259.63)" fill="#20B2AA">
    <circle cx="0" cy="0" r="8.26" class="primitive"/>
  </g>
  <g transform="translate(200.18,287.51)" fill="#FFA500">
    <circle cx="0" cy="0" r="8.26" class="primitive"/>
  </g>
  <g transform="translate(144.44,293.33)" fill="#FFA500">
    <circle cx="0" cy="0" r="8.26" class="primitive"/>
  </g>
  <g transform="translate(91.12,276.11)" fill="#FFA500">
    <circle cx="0" cy="0" r="8.26" class="primitive"/>
  </g>
  <g transform="translate(49.47,238.8)" fill="#FFA500">
    <circle cx="0" cy="0" r="8.26" class="primitive"/>
  </g>
  <g transform="translate(26.67,187.87)" fill="#FFA500">
    <circle cx="0" cy="0" r="8.26" class="primitive"/>
  </g>
  <g transform="translate(26.67,132.13)" fill="#FF0000">
    <circle cx="0" cy="0" r="8.26" class="primitive"/>
  </g>
  <g transform="translate(49.47,81.2)" fill="#FF0000">
    <circle cx="0" cy="0" r="8.26" class="primitive"/>
  </g>
  <g transform="translate(91.12,43.89)" fill="#FF0000">
    <circle cx="0" cy="0" r="8.26" class="primitive"/>
  </g>
  <g transform="translate(144.44,26.67)" fill="#0000FF">
    <circle cx="0" cy="0" r="8.26" class="primitive"/>
  </g>
  <g transform="translate(200.18,32.49)" fill="#0000FF">
    <circle cx="0" cy="0" r="8.26" class="primitive"/>
  </g>
  <g transform="translate(248.73,60.37)" fill="#0000FF">
    <circle cx="0" cy="0" r="8.26" class="primitive"/>
  </g>
  <g transform="translate(281.68,105.47)" fill="#0000FF">
    <circle cx="0" cy="0" r="8.26" class="primitive"/>
  </g>
</g>
<g font-size="4" stroke="#000000" stroke-opacity="0.000" fill="#000000" id="img-85b57263-5">
  <g transform="translate(293.33,160)">
    <g class="primitive">
      <text text-anchor="middle" dy="0.35em">u1</text>
    </g>
  </g>
  <g transform="translate(281.68,214.53)">
    <g class="primitive">
      <text text-anchor="middle" dy="0.35em">u2</text>
    </g>
  </g>
  <g transform="translate(248.73,259.63)">
    <g class="primitive">
      <text text-anchor="middle" dy="0.35em">u3</text>
    </g>
  </g>
  <g transform="translate(200.18,287.51)">
    <g class="primitive">
      <text text-anchor="middle" dy="0.35em">10301bf7</text>
    </g>
  </g>
  <g transform="translate(144.44,293.33)">
    <g class="primitive">
      <text text-anchor="middle" dy="0.35em">f1ef763b</text>
    </g>
  </g>
  <g transform="translate(91.12,276.11)">
    <g class="primitive">
      <text text-anchor="middle" dy="0.35em">0eed6aff</text>
    </g>
  </g>
  <g transform="translate(49.47,238.8)">
    <g class="primitive">
      <text text-anchor="middle" dy="0.35em">04ce3f0b</text>
    </g>
  </g>
  <g transform="translate(26.67,187.87)">
    <g class="primitive">
      <text text-anchor="middle" dy="0.35em">acb725a2</text>
    </g>
  </g>
  <g transform="translate(26.67,132.13)">
    <g class="primitive">
      <text text-anchor="middle" dy="0.35em">domain.com</text>
    </g>
  </g>
  <g transform="translate(49.47,81.2)">
    <g class="primitive">
      <text text-anchor="middle" dy="0.35em">learn.edu</text>
    </g>
  </g>
  <g transform="translate(91.12,43.89)">
    <g class="primitive">
      <text text-anchor="middle" dy="0.35em">wikipedia.org</text>
    </g>
  </g>
  <g transform="translate(144.44,26.67)">
    <g class="primitive">
      <text text-anchor="middle" dy="0.35em">93.172.226.55</text>
    </g>
  </g>
  <g transform="translate(200.18,32.49)">
    <g class="primitive">
      <text text-anchor="middle" dy="0.35em">155.129.86.61</text>
    </g>
  </g>
  <g transform="translate(248.73,60.37)">
    <g class="primitive">
      <text text-anchor="middle" dy="0.35em">4.204.201.145</text>
    </g>
  </g>
  <g transform="translate(281.68,105.47)">
    <g class="primitive">
      <text text-anchor="middle" dy="0.35em">241.67.142.157</text>
    </g>
  </g>
</g>
</svg>
